<!-- @license lucide-static v1.23.0 - ISC -->
<svg
  class="lucide lucide-eye-off"
  xmlns="http://www.w3.org/2000/svg"
  width="24"
  height="24"
  viewBox="0 0 24 24"
  fill="none"
  stroke="currentColor"
  stroke-width="2"
  stroke-linecap="round"
  stroke-linejoin="round"
>
  <path d="M10.733 5.076A10.744 10.744 0 0 1 12 5c4.477 0 8.543 3.402 9.938 7.652a1 1 0 0 1-.074.815" />
  <path d="M14.084 14.158a3 3 0 0 1-4.242-4.242" />
  <path d="M17.479 17.499C15.923 18.797 14.03 19.5 12 19.5c-4.477 0-8.543-3.402-9.938-7.652a1 1 0 0 1 .074-.815 10.75 10.75 0 0 1 2.223-3.105" />
  <path d="m2 2 20 20" />
</svg>
