<!-- Tabler icon: brush. Source: https://github.com/tabler/tabler-icons. License: MIT. -->
<svg xmlns="http://www.w3.org/2000/svg" width="24" height="24" viewBox="0 0 24 24" fill="none" stroke-linecap="round" stroke-linejoin="round">
  <g stroke="#fff" stroke-width="5">
    <path d="M3 21v-4a4 4 0 1 1 4 4h-4" />
    <path d="M21 3a16 16 0 0 0 -12.8 10.2" />
    <path d="M21 3a16 16 0 0 1 -10.2 12.8" />
    <path d="M10.6 9a9 9 0 0 1 4.4 4.4" />
  </g>
  <g stroke="#111827" stroke-width="2.25">
    <path d="M3 21v-4a4 4 0 1 1 4 4h-4" />
    <path d="M21 3a16 16 0 0 0 -12.8 10.2" />
    <path d="M21 3a16 16 0 0 1 -10.2 12.8" />
    <path d="M10.6 9a9 9 0 0 1 4.4 4.4" />
  </g>
</svg>
