<!-- Tabler icon: eraser. Source: https://github.com/tabler/tabler-icons. License: MIT. -->
<svg xmlns="http://www.w3.org/2000/svg" width="24" height="24" viewBox="0 0 24 24" fill="none" stroke-linecap="round" stroke-linejoin="round">
  <g stroke="#fff" stroke-width="5">
    <path d="M19 20h-10.5l-4.21 -4.3a1 1 0 0 1 0 -1.41l10 -10a1 1 0 0 1 1.41 0l5 5a1 1 0 0 1 0 1.41l-9.2 9.3" />
    <path d="M18 13.3l-6.3 -6.3" />
  </g>
  <g stroke="#111827" stroke-width="2.25">
    <path d="M19 20h-10.5l-4.21 -4.3a1 1 0 0 1 0 -1.41l10 -10a1 1 0 0 1 1.41 0l5 5a1 1 0 0 1 0 1.41l-9.2 9.3" />
    <path d="M18 13.3l-6.3 -6.3" />
  </g>
</svg>
